<?xml version="1.0" standalone="no"?><svg xmlns="http://www.w3.org/2000/svg" viewBox="0 0 1440 320"><path fill="#fff" fill-opacity="1" d="M0,256L30,234.7C60,213,120,171,180,138.7C240,107,300,85,360,90.7C420,96,480,128,540,128C600,128,660,96,720,106.7C780,117,840,171,900,181.3C960,192,1020,160,1080,160C1140,160,1200,192,1260,186.7C1320,181,1380,139,1410,117.3L1440,96L1440,320L1410,320C1380,320,1320,320,1260,320C1200,320,1140,320,1080,320C1020,320,960,320,900,320C840,320,780,320,720,320C660,320,600,320,540,320C480,320,420,320,360,320C300,320,240,320,180,320C120,320,60,320,30,320L0,320Z"></path></svg>