<?xml version="1.0" standalone="no"?><svg xmlns="http://www.w3.org/2000/svg" viewBox="0 0 1440 320"><path fill="#000000" fill-opacity="1" d="M0,192L6.2,181.3C12.3,171,25,149,37,138.7C49.2,128,62,128,74,122.7C86.2,117,98,107,111,90.7C123.1,75,135,53,148,80C160,107,172,181,185,229.3C196.9,277,209,299,222,293.3C233.8,288,246,256,258,229.3C270.8,203,283,181,295,181.3C307.7,181,320,203,332,186.7C344.6,171,357,117,369,85.3C381.5,53,394,43,406,53.3C418.5,64,431,96,443,138.7C455.4,181,468,235,480,256C492.3,277,505,267,517,234.7C529.2,203,542,149,554,128C566.2,107,578,117,591,112C603.1,107,615,85,628,69.3C640,53,652,43,665,69.3C676.9,96,689,160,702,176C713.8,192,726,160,738,144C750.8,128,763,128,775,117.3C787.7,107,800,85,812,96C824.6,107,837,149,849,181.3C861.5,213,874,235,886,229.3C898.5,224,911,192,923,176C935.4,160,948,160,960,133.3C972.3,107,985,53,997,53.3C1009.2,53,1022,107,1034,122.7C1046.2,139,1058,117,1071,106.7C1083.1,96,1095,96,1108,112C1120,128,1132,160,1145,144C1156.9,128,1169,64,1182,42.7C1193.8,21,1206,43,1218,80C1230.8,117,1243,171,1255,202.7C1267.7,235,1280,245,1292,229.3C1304.6,213,1317,171,1329,128C1341.5,85,1354,43,1366,42.7C1378.5,43,1391,85,1403,128C1415.4,171,1428,213,1434,234.7L1440,256L1440,0L1433.8,0C1427.7,0,1415,0,1403,0C1390.8,0,1378,0,1366,0C1353.8,0,1342,0,1329,0C1316.9,0,1305,0,1292,0C1280,0,1268,0,1255,0C1243.1,0,1231,0,1218,0C1206.2,0,1194,0,1182,0C1169.2,0,1157,0,1145,0C1132.3,0,1120,0,1108,0C1095.4,0,1083,0,1071,0C1058.5,0,1046,0,1034,0C1021.5,0,1009,0,997,0C984.6,0,972,0,960,0C947.7,0,935,0,923,0C910.8,0,898,0,886,0C873.8,0,862,0,849,0C836.9,0,825,0,812,0C800,0,788,0,775,0C763.1,0,751,0,738,0C726.2,0,714,0,702,0C689.2,0,677,0,665,0C652.3,0,640,0,628,0C615.4,0,603,0,591,0C578.5,0,566,0,554,0C541.5,0,529,0,517,0C504.6,0,492,0,480,0C467.7,0,455,0,443,0C430.8,0,418,0,406,0C393.8,0,382,0,369,0C356.9,0,345,0,332,0C320,0,308,0,295,0C283.1,0,271,0,258,0C246.2,0,234,0,222,0C209.2,0,197,0,185,0C172.3,0,160,0,148,0C135.4,0,123,0,111,0C98.5,0,86,0,74,0C61.5,0,49,0,37,0C24.6,0,12,0,6,0L0,0Z"></path></svg>