<?xml version="1.0" standalone="no"?><svg xmlns="http://www.w3.org/2000/svg" viewBox="0 0 1440 320"><path fill="#ffffff" fill-opacity="1" d="M0,256L6.2,266.7C12.3,277,25,299,37,288C49.2,277,62,235,74,186.7C86.2,139,98,85,111,53.3C123.1,21,135,11,148,48C160,85,172,171,185,176C196.9,181,209,107,222,96C233.8,85,246,139,258,149.3C270.8,160,283,128,295,122.7C307.7,117,320,139,332,170.7C344.6,203,357,245,369,240C381.5,235,394,181,406,165.3C418.5,149,431,171,443,165.3C455.4,160,468,128,480,144C492.3,160,505,224,517,229.3C529.2,235,542,181,554,154.7C566.2,128,578,128,591,144C603.1,160,615,192,628,186.7C640,181,652,139,665,149.3C676.9,160,689,224,702,213.3C713.8,203,726,117,738,96C750.8,75,763,117,775,154.7C787.7,192,800,224,812,202.7C824.6,181,837,107,849,101.3C861.5,96,874,160,886,165.3C898.5,171,911,117,923,112C935.4,107,948,149,960,144C972.3,139,985,85,997,106.7C1009.2,128,1022,224,1034,250.7C1046.2,277,1058,235,1071,208C1083.1,181,1095,171,1108,170.7C1120,171,1132,181,1145,170.7C1156.9,160,1169,128,1182,128C1193.8,128,1206,160,1218,165.3C1230.8,171,1243,149,1255,144C1267.7,139,1280,149,1292,154.7C1304.6,160,1317,160,1329,160C1341.5,160,1354,160,1366,181.3C1378.5,203,1391,245,1403,250.7C1415.4,256,1428,224,1434,208L1440,192L1440,320L1433.8,320C1427.7,320,1415,320,1403,320C1390.8,320,1378,320,1366,320C1353.8,320,1342,320,1329,320C1316.9,320,1305,320,1292,320C1280,320,1268,320,1255,320C1243.1,320,1231,320,1218,320C1206.2,320,1194,320,1182,320C1169.2,320,1157,320,1145,320C1132.3,320,1120,320,1108,320C1095.4,320,1083,320,1071,320C1058.5,320,1046,320,1034,320C1021.5,320,1009,320,997,320C984.6,320,972,320,960,320C947.7,320,935,320,923,320C910.8,320,898,320,886,320C873.8,320,862,320,849,320C836.9,320,825,320,812,320C800,320,788,320,775,320C763.1,320,751,320,738,320C726.2,320,714,320,702,320C689.2,320,677,320,665,320C652.3,320,640,320,628,320C615.4,320,603,320,591,320C578.5,320,566,320,554,320C541.5,320,529,320,517,320C504.6,320,492,320,480,320C467.7,320,455,320,443,320C430.8,320,418,320,406,320C393.8,320,382,320,369,320C356.9,320,345,320,332,320C320,320,308,320,295,320C283.1,320,271,320,258,320C246.2,320,234,320,222,320C209.2,320,197,320,185,320C172.3,320,160,320,148,320C135.4,320,123,320,111,320C98.5,320,86,320,74,320C61.5,320,49,320,37,320C24.6,320,12,320,6,320L0,320Z"></path></svg>